<svg width="1200" height="1200" viewBox="0 0 1200 1200" fill="none" xmlns="http://www.w3.org/2000/svg">
<path d="M799.999 0C579.084 0 340.302 179.086 266.665 400L0 1200C0 1200 160.001 1200 213.334 1040L426.665 400C470.848 267.452 614.117 160 746.666 160H986.666C1146.67 160 1200 0 1200 0H799.999Z" fill="white"/>
<path d="M1066.67 400C993.03 620.914 754.249 800 533.334 800H373.333C426.666 640 586.667 640 586.667 640C719.216 640 862.485 532.548 906.667 400C906.667 400 960 240 1120 240L1066.67 400Z" fill="white"/>
<path d="M613.333 560C701.699 560 797.212 488.366 826.667 400C856.122 311.634 808.365 240 719.999 240C631.633 240 536.121 311.634 506.666 400C477.211 488.366 524.967 560 613.333 560Z" fill="white"/>
</svg>
